<?xml version="1.0" encoding="UTF-8" standalone="no"?>
<!DOCTYPE svg PUBLIC "-//W3C//DTD SVG 1.1//EN"
 "http://www.w3.org/Graphics/SVG/1.1/DTD/svg11.dtd">
<!-- Generated by graphviz version 2.42.4 (0)
 -->
<!-- Pages: 1 -->
<svg width="1118pt" height="805pt"
 viewBox="0.00 0.00 1117.71 804.70" xmlns="http://www.w3.org/2000/svg" xmlns:xlink="http://www.w3.org/1999/xlink">
<g id="graph0" class="graph" transform="scale(1 1) rotate(0) translate(4 800.7)">
<polygon fill="white" stroke="transparent" points="-4,4 -4,-800.7 1113.71,-800.7 1113.71,4 -4,4"/>
<!-- prod1 -->
<g id="node1" class="node">
<title>prod1</title>
<image xlink:href="person.svg" width="64.6479px" height="108px" preserveAspectRatio="xMinYMin meet" x="765.122" y="-726.205"/>
<text text-anchor="middle" x="797.45" y="-622" font-family="Times,serif" font-size="14.00" fill="red">producer</text>
</g>
<!-- data1 -->
<g id="node6" class="node">
<title>data1</title>
<polygon fill="none" stroke="black" points="798.84,-378.34 720.84,-378.34 720.84,-342.34 804.84,-342.34 804.84,-372.34 798.84,-378.34"/>
<polyline fill="none" stroke="black" points="798.84,-378.34 798.84,-372.34 "/>
<polyline fill="none" stroke="black" points="804.84,-372.34 798.84,-372.34 "/>
<text text-anchor="middle" x="762.84" y="-356.64" font-family="Times,serif" font-size="14.00">RDF data</text>
</g>
<!-- prod1&#45;&gt;data1 -->
<g id="edge1" class="edge">
<title>prod1&#45;&gt;data1</title>
<path fill="none" stroke="black" d="M791.42,-617.88C784.01,-551.08 771.71,-440.22 765.97,-388.51"/>
<polygon fill="black" stroke="black" points="769.43,-387.96 764.85,-378.41 762.47,-388.73 769.43,-387.96"/>
<text text-anchor="middle" x="745.69" y="-507" font-family="Times,serif" font-size="14.00">produces</text>
</g>
<!-- arch1 -->
<g id="node2" class="node">
<title>arch1</title>
<image xlink:href="person.svg" width="64.6479px" height="108px" preserveAspectRatio="xMinYMin meet" x="487.976" y="-796.697"/>
<text text-anchor="middle" x="520.3" y="-692.5" font-family="Times,serif" font-size="14.00" fill="blue">data architect</text>
</g>
<!-- sche1 -->
<g id="node8" class="node">
<title>sche1</title>
<polygon fill="none" stroke="black" points="609.6,-534.63 544.6,-534.63 544.6,-498.63 615.6,-498.63 615.6,-528.63 609.6,-534.63"/>
<polyline fill="none" stroke="black" points="609.6,-534.63 609.6,-528.63 "/>
<polyline fill="none" stroke="black" points="615.6,-528.63 609.6,-528.63 "/>
<text text-anchor="middle" x="580.1" y="-512.93" font-family="Times,serif" font-size="14.00">schema</text>
</g>
<!-- arch1&#45;&gt;sche1 -->
<g id="edge9" class="edge">
<title>arch1&#45;&gt;sche1</title>
<path fill="none" stroke="black" d="M534.62,-688.55C546.6,-643.25 563.21,-580.45 572.69,-544.63"/>
<polygon fill="black" stroke="black" points="576.1,-545.42 575.27,-534.86 569.33,-543.63 576.1,-545.42"/>
<text text-anchor="middle" x="520.66" y="-620.39" font-family="Times,serif" font-size="14.00">produces</text>
</g>
<!-- cons1 -->
<g id="node3" class="node">
<title>cons1</title>
<image xlink:href="person.svg" width="64.6479px" height="108px" preserveAspectRatio="xMinYMin meet" x="287.579" y="-147.522"/>
<text text-anchor="middle" x="319.9" y="-43.32" font-family="Times,serif" font-size="14.00" fill="green">consumer</text>
</g>
<!-- data2 -->
<g id="node7" class="node">
<title>data2</title>
<polygon fill="none" stroke="black" points="442.61,-354.12 364.61,-354.12 364.61,-318.12 448.61,-318.12 448.61,-348.12 442.61,-354.12"/>
<polyline fill="none" stroke="black" points="442.61,-354.12 442.61,-348.12 "/>
<polyline fill="none" stroke="black" points="448.61,-348.12 442.61,-348.12 "/>
<text text-anchor="middle" x="406.61" y="-332.42" font-family="Times,serif" font-size="14.00">RDF data</text>
</g>
<!-- cons1&#45;&gt;data2 -->
<g id="edge4" class="edge">
<title>cons1&#45;&gt;data2</title>
<path fill="none" stroke="black" d="M339.25,-147.66C357.03,-197.4 382.67,-269.14 396.63,-308.19"/>
<polygon fill="black" stroke="black" points="393.42,-309.6 400.08,-317.84 400.01,-307.25 393.42,-309.6"/>
<text text-anchor="middle" x="337.94" y="-231.73" font-family="Times,serif" font-size="14.00">inspects</text>
</g>
<!-- cons2 -->
<g id="node4" class="node">
<title>cons2</title>
<image xlink:href="person.svg" width="64.6479px" height="108px" preserveAspectRatio="xMinYMin meet" x="10.6761" y="-333.471"/>
<text text-anchor="middle" x="43" y="-229.27" font-family="Times,serif" font-size="14.00" fill="green">consumer</text>
</g>
<!-- appl1 -->
<g id="node11" class="node">
<title>appl1</title>
<polygon fill="none" stroke="black" points="219.7,-443.59 165.7,-443.59 165.7,-439.59 161.7,-439.59 161.7,-435.59 165.7,-435.59 165.7,-415.59 161.7,-415.59 161.7,-411.59 165.7,-411.59 165.7,-407.59 219.7,-407.59 219.7,-443.59"/>
<polyline fill="none" stroke="black" points="165.7,-439.59 169.7,-439.59 169.7,-435.59 165.7,-435.59 "/>
<polyline fill="none" stroke="black" points="165.7,-415.59 169.7,-415.59 169.7,-411.59 165.7,-411.59 "/>
<text text-anchor="middle" x="192.7" y="-421.89" font-family="Times,serif" font-size="14.00">app</text>
</g>
<!-- cons2&#45;&gt;appl1 -->
<g id="edge6" class="edge">
<title>cons2&#45;&gt;appl1</title>
<path fill="none" stroke="black" d="M86.3,-321.73C112.25,-347.07 144.4,-378.45 166.53,-400.04"/>
<polygon fill="black" stroke="black" points="164.31,-402.77 173.91,-407.25 169.2,-397.76 164.31,-402.77"/>
<text text-anchor="middle" x="109.91" y="-364.69" font-family="Times,serif" font-size="14.00">uses</text>
</g>
<!-- cons3 -->
<g id="node5" class="node">
<title>cons3</title>
<image xlink:href="person.svg" width="64.6479px" height="108px" preserveAspectRatio="xMinYMin meet" x="949.288" y="-108"/>
<text text-anchor="middle" x="981.61" y="-3.8" font-family="Times,serif" font-size="14.00" fill="green">consumer</text>
</g>
<!-- endp1 -->
<g id="node12" class="node">
<title>endp1</title>
<polygon fill="none" stroke="black" points="1109.71,-276.52 1029.71,-276.52 1029.71,-272.52 1025.71,-272.52 1025.71,-268.52 1029.71,-268.52 1029.71,-248.52 1025.71,-248.52 1025.71,-244.52 1029.71,-244.52 1029.71,-240.52 1109.71,-240.52 1109.71,-276.52"/>
<polyline fill="none" stroke="black" points="1029.71,-272.52 1033.71,-272.52 1033.71,-268.52 1029.71,-268.52 "/>
<polyline fill="none" stroke="black" points="1029.71,-248.52 1033.71,-248.52 1033.71,-244.52 1029.71,-244.52 "/>
<text text-anchor="middle" x="1069.71" y="-254.82" font-family="Times,serif" font-size="14.00">endpoint</text>
</g>
<!-- cons3&#45;&gt;endp1 -->
<g id="edge12" class="edge">
<title>cons3&#45;&gt;endp1</title>
<path fill="none" stroke="black" d="M1004.87,-108C1021.89,-147.51 1044.28,-199.5 1057.8,-230.89"/>
<polygon fill="black" stroke="black" points="1054.69,-232.51 1061.86,-240.31 1061.12,-229.74 1054.69,-232.51"/>
<text text-anchor="middle" x="1004.34" y="-173.24" font-family="Times,serif" font-size="14.00">queries</text>
</g>
<!-- data1&#45;&gt;sche1 -->
<g id="edge7" class="edge">
<title>data1&#45;&gt;sche1</title>
<path fill="none" stroke="black" d="M741.52,-378.57C708.78,-406.57 646.06,-460.21 609.18,-491.75"/>
<polygon fill="black" stroke="black" points="606.61,-489.35 601.28,-498.51 611.16,-494.67 606.61,-489.35"/>
<text text-anchor="middle" x="629.35" y="-438.96" font-family="Times,serif" font-size="14.00">described by</text>
</g>
<!-- stor1 -->
<g id="node9" class="node">
<title>stor1</title>
<path fill="none" stroke="black" d="M1053.37,-471.42C1053.37,-473.23 1027.37,-474.69 995.37,-474.69 963.37,-474.69 937.37,-473.23 937.37,-471.42 937.37,-471.42 937.37,-441.96 937.37,-441.96 937.37,-440.16 963.37,-438.69 995.37,-438.69 1027.37,-438.69 1053.37,-440.16 1053.37,-441.96 1053.37,-441.96 1053.37,-471.42 1053.37,-471.42"/>
<path fill="none" stroke="black" d="M1053.37,-471.42C1053.37,-469.61 1027.37,-468.15 995.37,-468.15 963.37,-468.15 937.37,-469.61 937.37,-471.42"/>
<text text-anchor="middle" x="995.37" y="-452.99" font-family="Times,serif" font-size="14.00">SPARQL store</text>
</g>
<!-- data1&#45;&gt;stor1 -->
<g id="edge10" class="edge">
<title>data1&#45;&gt;stor1</title>
<path fill="none" stroke="black" d="M804.95,-377.79C843.93,-393.94 901.98,-417.99 943.74,-435.3"/>
<polygon fill="black" stroke="black" points="942.6,-438.62 953.18,-439.21 945.28,-432.15 942.6,-438.62"/>
<text text-anchor="middle" x="842.35" y="-410.34" font-family="Times,serif" font-size="14.00">stored in</text>
</g>
<!-- chan1 -->
<g id="node10" class="node">
<title>chan1</title>
<polygon fill="none" stroke="black" points="628.99,-217.64 556.99,-217.64 556.99,-213.64 552.99,-213.64 552.99,-209.64 556.99,-209.64 556.99,-189.64 552.99,-189.64 552.99,-185.64 556.99,-185.64 556.99,-181.64 628.99,-181.64 628.99,-217.64"/>
<polyline fill="none" stroke="black" points="556.99,-213.64 560.99,-213.64 560.99,-209.64 556.99,-209.64 "/>
<polyline fill="none" stroke="black" points="556.99,-189.64 560.99,-189.64 560.99,-185.64 556.99,-185.64 "/>
<text text-anchor="middle" x="592.99" y="-195.94" font-family="Times,serif" font-size="14.00">channel</text>
</g>
<!-- data1&#45;&gt;chan1 -->
<g id="edge2" class="edge">
<title>data1&#45;&gt;chan1</title>
<path fill="none" stroke="black" d="M743.69,-342.21C713.28,-313.44 653.88,-257.25 619.44,-224.66"/>
<polygon fill="black" stroke="black" points="621.74,-222.02 612.07,-217.69 616.93,-227.11 621.74,-222.02"/>
<text text-anchor="middle" x="644.06" y="-287.24" font-family="Times,serif" font-size="14.00">shared via</text>
</g>
<!-- data2&#45;&gt;data1 -->
<g id="edge13" class="edge">
<title>data2&#45;&gt;data1</title>
<path fill="none" stroke="black" stroke-dasharray="1,5" d="M448.88,-338.99C514.22,-343.43 639.63,-351.96 710.58,-356.78"/>
<polygon fill="black" stroke="black" points="710.42,-360.28 720.64,-357.47 710.9,-353.3 710.42,-360.28"/>
<text text-anchor="middle" x="553.73" y="-351.69" font-family="Times,serif" font-size="14.00">copy of</text>
</g>
<!-- data2&#45;&gt;sche1 -->
<g id="edge8" class="edge">
<title>data2&#45;&gt;sche1</title>
<path fill="none" stroke="black" d="M424.2,-354.42C455.33,-386.8 520.15,-454.25 555.62,-491.16"/>
<polygon fill="black" stroke="black" points="553.27,-493.76 562.72,-498.54 558.31,-488.91 553.27,-493.76"/>
<text text-anchor="middle" x="443.91" y="-426.59" font-family="Times,serif" font-size="14.00">described by</text>
</g>
<!-- data2&#45;&gt;chan1 -->
<g id="edge3" class="edge">
<title>data2&#45;&gt;chan1</title>
<path fill="none" stroke="black" d="M431.36,-317.99C464.37,-293.83 522.89,-250.97 559.72,-224"/>
<polygon fill="black" stroke="black" points="562.14,-226.57 568.14,-217.83 558,-220.92 562.14,-226.57"/>
<text text-anchor="middle" x="452.04" y="-274.8" font-family="Times,serif" font-size="14.00">received via</text>
</g>
<!-- stor1&#45;&gt;endp1 -->
<g id="edge11" class="edge">
<title>stor1&#45;&gt;endp1</title>
<path fill="none" stroke="black" d="M1002.23,-438.4C1015.31,-403.53 1043.9,-327.32 1059.33,-286.18"/>
<polygon fill="black" stroke="black" points="1062.63,-287.36 1062.86,-276.76 1056.07,-284.9 1062.63,-287.36"/>
<text text-anchor="middle" x="1001.78" y="-366.09" font-family="Times,serif" font-size="14.00">exposes</text>
</g>
<!-- appl1&#45;&gt;data2 -->
<g id="edge5" class="edge">
<title>appl1&#45;&gt;data2</title>
<path fill="none" stroke="black" d="M219.79,-414.25C253.66,-400.09 312.34,-375.55 354.91,-357.74"/>
<polygon fill="black" stroke="black" points="356.4,-360.91 364.28,-353.82 353.7,-354.45 356.4,-360.91"/>
<text text-anchor="middle" x="251.85" y="-389.8" font-family="Times,serif" font-size="14.00">processes</text>
</g>
</g>
</svg>
