<?xml version="1.0" encoding="UTF-8" standalone="no"?>
<!DOCTYPE svg PUBLIC "-//W3C//DTD SVG 1.1//EN"
 "http://www.w3.org/Graphics/SVG/1.1/DTD/svg11.dtd">
<!-- Generated by graphviz version 2.42.4 (0)
 -->
<!-- Pages: 1 -->
<svg width="1091pt" height="871pt"
 viewBox="0.00 0.00 1091.03 871.25" xmlns="http://www.w3.org/2000/svg" xmlns:xlink="http://www.w3.org/1999/xlink">
<g id="graph0" class="graph" transform="scale(1 1) rotate(0) translate(4 867.25)">
<polygon fill="white" stroke="transparent" points="-4,4 -4,-867.25 1087.03,-867.25 1087.03,4 -4,4"/>
<!-- prod1 -->
<g id="node1" class="node">
<title>prod1</title>
<image xlink:href="person.svg" width="64.6479px" height="108px" preserveAspectRatio="xMinYMin meet" x="725.146" y="-811.217"/>
<text text-anchor="middle" x="757.47" y="-707.02" font-family="Times,serif" font-size="14.00">producer</text>
</g>
<!-- data1 -->
<g id="node6" class="node">
<title>data1</title>
<polygon fill="none" stroke="black" points="769.23,-471.94 691.23,-471.94 691.23,-435.94 775.23,-435.94 775.23,-465.94 769.23,-471.94"/>
<polyline fill="none" stroke="black" points="769.23,-471.94 769.23,-465.94 "/>
<polyline fill="none" stroke="black" points="775.23,-465.94 769.23,-465.94 "/>
<text text-anchor="middle" x="733.23" y="-450.24" font-family="Times,serif" font-size="14.00">RDF data</text>
</g>
<!-- prod1&#45;&gt;data1 -->
<g id="edge1" class="edge">
<title>prod1&#45;&gt;data1</title>
<path fill="none" stroke="black" d="M753.14,-703C747.96,-638.24 739.5,-532.37 735.48,-482.12"/>
<polygon fill="black" stroke="black" points="738.96,-481.68 734.67,-471.99 731.98,-482.24 738.96,-481.68"/>
<text text-anchor="middle" x="711.31" y="-596.36" font-family="Times,serif" font-size="14.00">produces</text>
</g>
<!-- arch1 -->
<g id="node2" class="node">
<title>arch1</title>
<image xlink:href="person.svg" width="64.6479px" height="108px" preserveAspectRatio="xMinYMin meet" x="395.094" y="-863.249"/>
<text text-anchor="middle" x="427.42" y="-759.05" font-family="Times,serif" font-size="14.00">data architect</text>
</g>
<!-- sche1 -->
<g id="node8" class="node">
<title>sche1</title>
<polygon fill="none" stroke="black" points="546.34,-597.58 481.34,-597.58 481.34,-561.58 552.34,-561.58 552.34,-591.58 546.34,-597.58"/>
<polyline fill="none" stroke="black" points="546.34,-597.58 546.34,-591.58 "/>
<polyline fill="none" stroke="black" points="552.34,-591.58 546.34,-591.58 "/>
<text text-anchor="middle" x="516.84" y="-575.88" font-family="Times,serif" font-size="14.00">schema</text>
</g>
<!-- arch1&#45;&gt;sche1 -->
<g id="edge9" class="edge">
<title>arch1&#45;&gt;sche1</title>
<path fill="none" stroke="black" d="M448.5,-755.11C466.57,-708.68 491.88,-643.68 506.08,-607.21"/>
<polygon fill="black" stroke="black" points="509.41,-608.31 509.78,-597.72 502.89,-605.77 509.41,-608.31"/>
<text text-anchor="middle" x="444.29" y="-684.96" font-family="Times,serif" font-size="14.00">produces</text>
</g>
<!-- cons1 -->
<g id="node3" class="node">
<title>cons1</title>
<image xlink:href="person.svg" width="64.6479px" height="108px" preserveAspectRatio="xMinYMin meet" x="330.955" y="-108"/>
<text text-anchor="middle" x="363.28" y="-3.8" font-family="Times,serif" font-size="14.00">consumer</text>
</g>
<!-- data2 -->
<g id="node7" class="node">
<title>data2</title>
<polygon fill="none" stroke="black" points="462.55,-338.4 384.55,-338.4 384.55,-302.4 468.55,-302.4 468.55,-332.4 462.55,-338.4"/>
<polyline fill="none" stroke="black" points="462.55,-338.4 462.55,-332.4 "/>
<polyline fill="none" stroke="black" points="468.55,-332.4 462.55,-332.4 "/>
<text text-anchor="middle" x="426.55" y="-316.7" font-family="Times,serif" font-size="14.00">RDF data</text>
</g>
<!-- cons1&#45;&gt;data2 -->
<g id="edge4" class="edge">
<title>cons1&#45;&gt;data2</title>
<path fill="none" stroke="black" d="M376.16,-108.23C389.41,-164.03 409.54,-248.75 419.89,-292.33"/>
<polygon fill="black" stroke="black" points="416.52,-293.32 422.24,-302.24 423.33,-291.7 416.52,-293.32"/>
<text text-anchor="middle" x="368.02" y="-204.08" font-family="Times,serif" font-size="14.00">inspects</text>
</g>
<!-- cons2 -->
<g id="node4" class="node">
<title>cons2</title>
<image xlink:href="person.svg" width="64.6479px" height="108px" preserveAspectRatio="xMinYMin meet" x="10.6761" y="-324.336"/>
<text text-anchor="middle" x="43" y="-220.14" font-family="Times,serif" font-size="14.00">consumer</text>
</g>
<!-- appl1 -->
<g id="node11" class="node">
<title>appl1</title>
<polygon fill="none" stroke="black" points="213.18,-456.1 159.18,-456.1 159.18,-452.1 155.18,-452.1 155.18,-448.1 159.18,-448.1 159.18,-428.1 155.18,-428.1 155.18,-424.1 159.18,-424.1 159.18,-420.1 213.18,-420.1 213.18,-456.1"/>
<polyline fill="none" stroke="black" points="159.18,-452.1 163.18,-452.1 163.18,-448.1 159.18,-448.1 "/>
<polyline fill="none" stroke="black" points="159.18,-428.1 163.18,-428.1 163.18,-424.1 159.18,-424.1 "/>
<text text-anchor="middle" x="186.18" y="-434.4" font-family="Times,serif" font-size="14.00">app</text>
</g>
<!-- cons2&#45;&gt;appl1 -->
<g id="edge6" class="edge">
<title>cons2&#45;&gt;appl1</title>
<path fill="none" stroke="black" d="M86.35,-321.13C111.93,-351.1 143.25,-387.8 163.91,-412"/>
<polygon fill="black" stroke="black" points="161.33,-414.37 170.48,-419.71 166.65,-409.83 161.33,-414.37"/>
<text text-anchor="middle" x="108.63" y="-370.36" font-family="Times,serif" font-size="14.00">uses</text>
</g>
<!-- cons3 -->
<g id="node5" class="node">
<title>cons3</title>
<image xlink:href="person.svg" width="64.6479px" height="108px" preserveAspectRatio="xMinYMin meet" x="982.993" y="-123.526"/>
<text text-anchor="middle" x="1015.32" y="-19.33" font-family="Times,serif" font-size="14.00">consumer</text>
</g>
<!-- endp1 -->
<g id="node12" class="node">
<title>endp1</title>
<polygon fill="none" stroke="black" points="1083.03,-337.03 1003.03,-337.03 1003.03,-333.03 999.03,-333.03 999.03,-329.03 1003.03,-329.03 1003.03,-309.03 999.03,-309.03 999.03,-305.03 1003.03,-305.03 1003.03,-301.03 1083.03,-301.03 1083.03,-337.03"/>
<polyline fill="none" stroke="black" points="1003.03,-333.03 1007.03,-333.03 1007.03,-329.03 1003.03,-329.03 "/>
<polyline fill="none" stroke="black" points="1003.03,-309.03 1007.03,-309.03 1007.03,-305.03 1003.03,-305.03 "/>
<text text-anchor="middle" x="1043.03" y="-315.33" font-family="Times,serif" font-size="14.00">endpoint</text>
</g>
<!-- cons3&#45;&gt;endp1 -->
<g id="edge12" class="edge">
<title>cons3&#45;&gt;endp1</title>
<path fill="none" stroke="black" d="M1021.33,-123.66C1027.05,-175.11 1035.41,-250.44 1039.91,-290.88"/>
<polygon fill="black" stroke="black" points="1036.43,-291.29 1041.01,-300.84 1043.39,-290.52 1036.43,-291.29"/>
<text text-anchor="middle" x="1003.62" y="-211.07" font-family="Times,serif" font-size="14.00">queries</text>
</g>
<!-- data1&#45;&gt;sche1 -->
<g id="edge7" class="edge">
<title>data1&#45;&gt;sche1</title>
<path fill="none" stroke="black" d="M702.23,-471.94C664.01,-494.13 598.99,-531.88 556.99,-556.27"/>
<polygon fill="black" stroke="black" points="555.03,-553.36 548.14,-561.41 558.54,-559.41 555.03,-553.36"/>
<text text-anchor="middle" x="583.61" y="-517.91" font-family="Times,serif" font-size="14.00">described by</text>
</g>
<!-- stor1 -->
<g id="node9" class="node">
<title>stor1</title>
<path fill="none" stroke="black" d="M1020.68,-554.35C1020.68,-556.16 1002.98,-557.62 981.18,-557.62 959.38,-557.62 941.68,-556.16 941.68,-554.35 941.68,-554.35 941.68,-524.9 941.68,-524.9 941.68,-523.09 959.38,-521.62 981.18,-521.62 1002.98,-521.62 1020.68,-523.09 1020.68,-524.9 1020.68,-524.9 1020.68,-554.35 1020.68,-554.35"/>
<path fill="none" stroke="black" d="M1020.68,-554.35C1020.68,-552.55 1002.98,-551.08 981.18,-551.08 959.38,-551.08 941.68,-552.55 941.68,-554.35"/>
<text text-anchor="middle" x="981.18" y="-535.92" font-family="Times,serif" font-size="14.00">rdf store</text>
</g>
<!-- data1&#45;&gt;stor1 -->
<g id="edge10" class="edge">
<title>data1&#45;&gt;stor1</title>
<path fill="none" stroke="black" d="M775.29,-468.48C818.54,-483.42 885.87,-506.69 931.66,-522.51"/>
<polygon fill="black" stroke="black" points="930.78,-525.91 941.38,-525.87 933.07,-519.3 930.78,-525.91"/>
<text text-anchor="middle" x="821.48" y="-499.3" font-family="Times,serif" font-size="14.00">stored in</text>
</g>
<!-- chan1 -->
<g id="node10" class="node">
<title>chan1</title>
<polygon fill="none" stroke="black" points="688.73,-224.17 616.73,-224.17 616.73,-220.17 612.73,-220.17 612.73,-216.17 616.73,-216.17 616.73,-196.17 612.73,-196.17 612.73,-192.17 616.73,-192.17 616.73,-188.17 688.73,-188.17 688.73,-224.17"/>
<polyline fill="none" stroke="black" points="616.73,-220.17 620.73,-220.17 620.73,-216.17 616.73,-216.17 "/>
<polyline fill="none" stroke="black" points="616.73,-196.17 620.73,-196.17 620.73,-192.17 616.73,-192.17 "/>
<text text-anchor="middle" x="652.73" y="-202.47" font-family="Times,serif" font-size="14.00">channel</text>
</g>
<!-- data1&#45;&gt;chan1 -->
<g id="edge2" class="edge">
<title>data1&#45;&gt;chan1</title>
<path fill="none" stroke="black" d="M727.31,-435.73C713.38,-392.86 678.47,-285.38 661.83,-234.16"/>
<polygon fill="black" stroke="black" points="665.08,-232.84 658.66,-224.42 658.42,-235.01 665.08,-232.84"/>
<text text-anchor="middle" x="666.07" y="-338.74" font-family="Times,serif" font-size="14.00">sent via</text>
</g>
<!-- data2&#45;&gt;data1 -->
<g id="edge13" class="edge">
<title>data2&#45;&gt;data1</title>
<path fill="none" stroke="black" stroke-dasharray="1,5" d="M467.91,-338.41C523.47,-362.6 622.15,-405.58 682.24,-431.74"/>
<polygon fill="black" stroke="black" points="680.98,-435.01 691.54,-435.79 683.77,-428.59 680.98,-435.01"/>
<text text-anchor="middle" x="549.08" y="-388.88" font-family="Times,serif" font-size="14.00">copy of</text>
</g>
<!-- data2&#45;&gt;sche1 -->
<g id="edge8" class="edge">
<title>data2&#45;&gt;sche1</title>
<path fill="none" stroke="black" d="M432.9,-338.62C448.48,-383.33 488.65,-498.65 507.2,-551.89"/>
<polygon fill="black" stroke="black" points="503.9,-553.08 510.5,-561.37 510.52,-550.78 503.9,-553.08"/>
<text text-anchor="middle" x="424.05" y="-449.06" font-family="Times,serif" font-size="14.00">described by</text>
</g>
<!-- data2&#45;&gt;chan1 -->
<g id="edge3" class="edge">
<title>data2&#45;&gt;chan1</title>
<path fill="none" stroke="black" d="M462.39,-302.3C501.85,-282.37 565.34,-250.31 608.02,-228.75"/>
<polygon fill="black" stroke="black" points="609.71,-231.82 617.06,-224.18 606.56,-225.57 609.71,-231.82"/>
<text text-anchor="middle" x="491.71" y="-269.32" font-family="Times,serif" font-size="14.00">received via</text>
</g>
<!-- stor1&#45;&gt;endp1 -->
<g id="edge11" class="edge">
<title>stor1&#45;&gt;endp1</title>
<path fill="none" stroke="black" d="M986.24,-521.57C997,-483.2 1022.22,-393.26 1035.12,-347.24"/>
<polygon fill="black" stroke="black" points="1038.57,-347.91 1037.9,-337.33 1031.83,-346.02 1038.57,-347.91"/>
<text text-anchor="middle" x="981.68" y="-438.21" font-family="Times,serif" font-size="14.00">exposes</text>
</g>
<!-- appl1&#45;&gt;data2 -->
<g id="edge5" class="edge">
<title>appl1&#45;&gt;data2</title>
<path fill="none" stroke="black" d="M213.28,-424.82C253.89,-404.94 331.01,-367.18 380.54,-342.93"/>
<polygon fill="black" stroke="black" points="382.31,-345.96 389.75,-338.42 379.23,-339.67 382.31,-345.96"/>
<text text-anchor="middle" x="261.41" y="-387.68" font-family="Times,serif" font-size="14.00">processes</text>
</g>
</g>
</svg>
