<?xml version="1.0" encoding="UTF-8" standalone="no"?>
<!DOCTYPE svg PUBLIC "-//W3C//DTD SVG 1.1//EN"
 "http://www.w3.org/Graphics/SVG/1.1/DTD/svg11.dtd">
<!-- Generated by graphviz version 2.42.4 (0)
 -->
<!-- Pages: 1 -->
<svg width="1110pt" height="885pt"
 viewBox="0.00 0.00 1109.88 885.48" xmlns="http://www.w3.org/2000/svg" xmlns:xlink="http://www.w3.org/1999/xlink">
<g id="graph0" class="graph" transform="scale(1 1) rotate(0) translate(4 881.48)">
<polygon fill="white" stroke="transparent" points="-4,4 -4,-881.48 1105.88,-881.48 1105.88,4 -4,4"/>
<!-- prod1 -->
<g id="node1" class="node">
<title>prod1</title>
<image xlink:href="person.svg" width="64.6479px" height="108px" preserveAspectRatio="xMinYMin meet" x="738.613" y="-824.472"/>
<text text-anchor="middle" x="770.94" y="-720.27" font-family="Times,serif" font-size="14.00">producer</text>
</g>
<!-- data1 -->
<g id="node6" class="node">
<title>data1</title>
<polygon fill="none" stroke="black" points="782.24,-479.48 704.24,-479.48 704.24,-443.48 788.24,-443.48 788.24,-473.48 782.24,-479.48"/>
<polyline fill="none" stroke="black" points="782.24,-479.48 782.24,-473.48 "/>
<polyline fill="none" stroke="black" points="788.24,-473.48 782.24,-473.48 "/>
<text text-anchor="middle" x="746.24" y="-457.78" font-family="Times,serif" font-size="14.00">RDF data</text>
</g>
<!-- prod1&#45;&gt;data1 -->
<g id="edge1" class="edge">
<title>prod1&#45;&gt;data1</title>
<path fill="none" stroke="black" d="M766.61,-716.3C761.32,-650.21 752.59,-540.97 748.49,-489.7"/>
<polygon fill="black" stroke="black" points="751.98,-489.37 747.69,-479.68 745,-489.92 751.98,-489.37"/>
<text text-anchor="middle" x="724.55" y="-606.8" font-family="Times,serif" font-size="14.00">produces</text>
</g>
<!-- arch1 -->
<g id="node2" class="node">
<title>arch1</title>
<image xlink:href="person.svg" width="64.6479px" height="108px" preserveAspectRatio="xMinYMin meet" x="402.34" y="-877.484"/>
<text text-anchor="middle" x="434.66" y="-773.28" font-family="Times,serif" font-size="14.00">data architect</text>
</g>
<!-- sche1 -->
<g id="node8" class="node">
<title>sche1</title>
<polygon fill="none" stroke="black" points="555.27,-607.49 490.27,-607.49 490.27,-571.49 561.27,-571.49 561.27,-601.49 555.27,-607.49"/>
<polyline fill="none" stroke="black" points="555.27,-607.49 555.27,-601.49 "/>
<polyline fill="none" stroke="black" points="561.27,-601.49 555.27,-601.49 "/>
<text text-anchor="middle" x="525.77" y="-585.79" font-family="Times,serif" font-size="14.00">schema</text>
</g>
<!-- arch1&#45;&gt;sche1 -->
<g id="edge9" class="edge">
<title>arch1&#45;&gt;sche1</title>
<path fill="none" stroke="black" d="M455.8,-769.21C474.29,-721.7 500.42,-654.59 514.95,-617.27"/>
<polygon fill="black" stroke="black" points="518.36,-618.17 518.73,-607.58 511.84,-615.63 518.36,-618.17"/>
<text text-anchor="middle" x="452.37" y="-697.04" font-family="Times,serif" font-size="14.00">produces</text>
</g>
<!-- cons1 -->
<g id="node3" class="node">
<title>cons1</title>
<image xlink:href="person.svg" width="64.6479px" height="108px" preserveAspectRatio="xMinYMin meet" x="336.992" y="-108"/>
<text text-anchor="middle" x="369.32" y="-3.8" font-family="Times,serif" font-size="14.00">consumer</text>
</g>
<!-- data2 -->
<g id="node7" class="node">
<title>data2</title>
<polygon fill="none" stroke="black" points="469.78,-343.42 391.78,-343.42 391.78,-307.42 475.78,-307.42 475.78,-337.42 469.78,-343.42"/>
<polyline fill="none" stroke="black" points="469.78,-343.42 469.78,-337.42 "/>
<polyline fill="none" stroke="black" points="475.78,-337.42 469.78,-337.42 "/>
<text text-anchor="middle" x="433.78" y="-321.72" font-family="Times,serif" font-size="14.00">RDF data</text>
</g>
<!-- cons1&#45;&gt;data2 -->
<g id="edge4" class="edge">
<title>cons1&#45;&gt;data2</title>
<path fill="none" stroke="black" d="M382.21,-108.27C395.78,-165.42 416.61,-253.13 427.17,-297.56"/>
<polygon fill="black" stroke="black" points="423.78,-298.46 429.5,-307.38 430.59,-296.84 423.78,-298.46"/>
<text text-anchor="middle" x="374.69" y="-206.72" font-family="Times,serif" font-size="14.00">inspects</text>
</g>
<!-- cons2 -->
<g id="node4" class="node">
<title>cons2</title>
<image xlink:href="person.svg" width="64.6479px" height="108px" preserveAspectRatio="xMinYMin meet" x="10.6761" y="-328.413"/>
<text text-anchor="middle" x="43" y="-224.21" font-family="Times,serif" font-size="14.00">consumer</text>
</g>
<!-- appl1 -->
<g id="node11" class="node">
<title>appl1</title>
<polygon fill="none" stroke="black" points="215.88,-463.34 161.88,-463.34 161.88,-459.34 157.88,-459.34 157.88,-455.34 161.88,-455.34 161.88,-435.34 157.88,-435.34 157.88,-431.34 161.88,-431.34 161.88,-427.34 215.88,-427.34 215.88,-463.34"/>
<polyline fill="none" stroke="black" points="161.88,-459.34 165.88,-459.34 165.88,-455.34 161.88,-455.34 "/>
<polyline fill="none" stroke="black" points="161.88,-435.34 165.88,-435.34 165.88,-431.34 161.88,-431.34 "/>
<text text-anchor="middle" x="188.88" y="-441.64" font-family="Times,serif" font-size="14.00">app</text>
</g>
<!-- cons2&#45;&gt;appl1 -->
<g id="edge6" class="edge">
<title>cons2&#45;&gt;appl1</title>
<path fill="none" stroke="black" d="M86.37,-325.23C112.78,-356.18 145.42,-394.41 166.67,-419.32"/>
<polygon fill="black" stroke="black" points="164.26,-421.88 173.41,-427.22 169.58,-417.34 164.26,-421.88"/>
<text text-anchor="middle" x="110.02" y="-376.07" font-family="Times,serif" font-size="14.00">uses</text>
</g>
<!-- cons3 -->
<g id="node5" class="node">
<title>cons3</title>
<image xlink:href="person.svg" width="64.6479px" height="108px" preserveAspectRatio="xMinYMin meet" x="1001.32" y="-123.818"/>
<text text-anchor="middle" x="1033.64" y="-19.62" font-family="Times,serif" font-size="14.00">consumer</text>
</g>
<!-- endp1 -->
<g id="node12" class="node">
<title>endp1</title>
<polygon fill="none" stroke="black" points="1101.88,-342.03 1021.88,-342.03 1021.88,-338.03 1017.88,-338.03 1017.88,-334.03 1021.88,-334.03 1021.88,-314.03 1017.88,-314.03 1017.88,-310.03 1021.88,-310.03 1021.88,-306.03 1101.88,-306.03 1101.88,-342.03"/>
<polyline fill="none" stroke="black" points="1021.88,-338.03 1025.88,-338.03 1025.88,-334.03 1021.88,-334.03 "/>
<polyline fill="none" stroke="black" points="1021.88,-314.03 1025.88,-314.03 1025.88,-310.03 1021.88,-310.03 "/>
<text text-anchor="middle" x="1061.88" y="-320.33" font-family="Times,serif" font-size="14.00">endpoint</text>
</g>
<!-- cons3&#45;&gt;endp1 -->
<g id="edge12" class="edge">
<title>cons3&#45;&gt;endp1</title>
<path fill="none" stroke="black" d="M1039.67,-124.04C1045.51,-176.65 1054.15,-254.41 1058.74,-295.76"/>
<polygon fill="black" stroke="black" points="1055.29,-296.37 1059.87,-305.93 1062.25,-295.6 1055.29,-296.37"/>
<text text-anchor="middle" x="1022.2" y="-213.7" font-family="Times,serif" font-size="14.00">queries</text>
</g>
<!-- data1&#45;&gt;sche1 -->
<g id="edge7" class="edge">
<title>data1&#45;&gt;sche1</title>
<path fill="none" stroke="black" d="M715.12,-479.55C676,-502.26 608.79,-541.28 565.86,-566.21"/>
<polygon fill="black" stroke="black" points="563.98,-563.25 557.09,-571.3 567.5,-569.31 563.98,-563.25"/>
<text text-anchor="middle" x="594.49" y="-526.68" font-family="Times,serif" font-size="14.00">described by</text>
</g>
<!-- stor1 -->
<g id="node9" class="node">
<title>stor1</title>
<path fill="none" stroke="black" d="M1056.86,-563.51C1056.86,-565.31 1030.87,-566.78 998.86,-566.78 966.86,-566.78 940.86,-565.31 940.86,-563.51 940.86,-563.51 940.86,-534.05 940.86,-534.05 940.86,-532.24 966.86,-530.78 998.86,-530.78 1030.87,-530.78 1056.86,-532.24 1056.86,-534.05 1056.86,-534.05 1056.86,-563.51 1056.86,-563.51"/>
<path fill="none" stroke="black" d="M1056.86,-563.51C1056.86,-561.7 1030.87,-560.23 998.86,-560.23 966.86,-560.23 940.86,-561.7 940.86,-563.51"/>
<text text-anchor="middle" x="998.86" y="-545.08" font-family="Times,serif" font-size="14.00">SPARQL store</text>
</g>
<!-- data1&#45;&gt;stor1 -->
<g id="edge10" class="edge">
<title>data1&#45;&gt;stor1</title>
<path fill="none" stroke="black" d="M788.52,-476.09C829.96,-490.41 893.48,-512.36 939.88,-528.39"/>
<polygon fill="black" stroke="black" points="938.91,-531.76 949.5,-531.72 941.19,-525.15 938.91,-531.76"/>
<text text-anchor="middle" x="832.2" y="-506.04" font-family="Times,serif" font-size="14.00">stored in</text>
</g>
<!-- chan1 -->
<g id="node10" class="node">
<title>chan1</title>
<polygon fill="none" stroke="black" points="700.23,-227.04 628.23,-227.04 628.23,-223.04 624.23,-223.04 624.23,-219.04 628.23,-219.04 628.23,-199.04 624.23,-199.04 624.23,-195.04 628.23,-195.04 628.23,-191.04 700.23,-191.04 700.23,-227.04"/>
<polyline fill="none" stroke="black" points="628.23,-223.04 632.23,-223.04 632.23,-219.04 628.23,-219.04 "/>
<polyline fill="none" stroke="black" points="628.23,-199.04 632.23,-199.04 632.23,-195.04 628.23,-195.04 "/>
<text text-anchor="middle" x="664.23" y="-205.34" font-family="Times,serif" font-size="14.00">channel</text>
</g>
<!-- data1&#45;&gt;chan1 -->
<g id="edge2" class="edge">
<title>data1&#45;&gt;chan1</title>
<path fill="none" stroke="black" d="M740.34,-443.33C726.19,-399.77 690.23,-289.08 673.3,-236.97"/>
<polygon fill="black" stroke="black" points="676.6,-235.8 670.18,-227.37 669.94,-237.96 676.6,-235.8"/>
<text text-anchor="middle" x="669.32" y="-343.95" font-family="Times,serif" font-size="14.00">shared via</text>
</g>
<!-- data2&#45;&gt;data1 -->
<g id="edge13" class="edge">
<title>data2&#45;&gt;data1</title>
<path fill="none" stroke="black" stroke-dasharray="1,5" d="M475.27,-343.49C532,-368.19 633.71,-412.48 695.08,-439.21"/>
<polygon fill="black" stroke="black" points="694.01,-442.56 704.57,-443.34 696.8,-436.14 694.01,-442.56"/>
<text text-anchor="middle" x="559.18" y="-395.15" font-family="Times,serif" font-size="14.00">copy of</text>
</g>
<!-- data2&#45;&gt;sche1 -->
<g id="edge8" class="edge">
<title>data2&#45;&gt;sche1</title>
<path fill="none" stroke="black" d="M440.11,-343.57C455.89,-388.89 497.13,-507.26 516.04,-561.55"/>
<polygon fill="black" stroke="black" points="512.81,-562.92 519.41,-571.21 519.42,-560.61 512.81,-562.92"/>
<text text-anchor="middle" x="432.07" y="-456.36" font-family="Times,serif" font-size="14.00">described by</text>
</g>
<!-- data2&#45;&gt;chan1 -->
<g id="edge3" class="edge">
<title>data2&#45;&gt;chan1</title>
<path fill="none" stroke="black" d="M469.54,-307.36C509.9,-286.98 575.64,-253.78 619.4,-231.68"/>
<polygon fill="black" stroke="black" points="621.04,-234.77 628.39,-227.14 617.88,-228.52 621.04,-234.77"/>
<text text-anchor="middle" x="500.97" y="-273.32" font-family="Times,serif" font-size="14.00">received via</text>
</g>
<!-- stor1&#45;&gt;endp1 -->
<g id="edge11" class="edge">
<title>stor1&#45;&gt;endp1</title>
<path fill="none" stroke="black" d="M1003.91,-530.77C1014.88,-491.64 1040.95,-398.66 1054.07,-351.9"/>
<polygon fill="black" stroke="black" points="1057.48,-352.7 1056.81,-342.13 1050.74,-350.81 1057.48,-352.7"/>
<text text-anchor="middle" x="999.99" y="-445.13" font-family="Times,serif" font-size="14.00">exposes</text>
</g>
<!-- appl1&#45;&gt;data2 -->
<g id="edge5" class="edge">
<title>appl1&#45;&gt;data2</title>
<path fill="none" stroke="black" d="M216.02,-432.05C257.53,-411.72 337.26,-372.68 387.87,-347.9"/>
<polygon fill="black" stroke="black" points="389.52,-350.99 396.96,-343.45 386.44,-344.7 389.52,-350.99"/>
<text text-anchor="middle" x="266.44" y="-393.77" font-family="Times,serif" font-size="14.00">processes</text>
</g>
</g>
</svg>
